<svg xmlns="http://www.w3.org/2000/svg" viewBox="0 0 24 24" fill="currentColor" role="img" aria-label="SmartPlate icon"> <path fill-rule="evenodd" d="M12 1a11 11 0 1 0 0 22 11 11 0 0 0 0-22Zm0 3a8 8 0 1 0 0 16 8 8 0 0 0 0-16Z" clip-rule="evenodd"/> <path d="M7.4 16.8c2.2-.1 4-1.2 5.2-3.1 1.2-1.9 1.6-4.1 1.2-6.5-2.3.4-4.3 1.5-5.6 3.3-1.3 1.8-1.7 4-0.8 6.3Z"/> <path d="M12.2 10.9c0-.4.3-.7.7-.7h1.8c.7 0 1.3.2 1.8.6l1.5 1.2c.2.2.5.2.8 0l.8-.5c.3-.2.7-.1.9.2.2.3.1.7-.2.9l-.8.5c-.8.5-1.9.5-2.6-.1l-1.5-1.2c-.3-.2-.6-.3-1-.3h-1.5c-.4 0-.7-.3-.7-.7Z"/> <path d="M12.3 13.2c0-.4.3-.7.7-.7h2.2c.7 0 1.4.3 1.9.8l1.2 1.2c.2.2.6.2.9 0l.9-.6c.3-.2.7-.1.9.2.2.3.1.7-.2.9l-.9.6c-.9.6-2.1.5-2.8-.2l-1.2-1.2c-.2-.2-.5-.4-.8-.4h-1.9c-.4 0-.7-.3-.7-.7Z"/> <circle cx="19.2" cy="10.8" r="1"/> <circle cx="20.2" cy="14.3" r="1"/> <circle cx="17.9" cy="15.8" r="0.9"/> <path d="M18.6 7.4l.6-1.2.6 1.2 1.2.6-1.2.6-.6 1.2-.6-1.2-1.2-.6 1.2-.6Z"/> </svg>