<svg xmlns="http://www.w3.org/2000/svg" viewBox="0 0 820 256" role="img"
    aria-label="SmartPlate horizontal logo">

    <g transform="translate(0 0)">
        <svg x="0" y="0" width="256" height="256" viewBox="0 0 256 256">
            <path fill="#2F7F6D"
                d="M128 34c-52 0-94 42-94 94s42 94 94 94c34.6 0 65-18.6 81.6-46.2
        3.8-6.3 1.8-14.4-4.5-18.2-6.3-3.8-14.4-1.8-18.2 4.5C174.8 184.2 153 198 128 198
        c-38.7 0-70-31.3-70-70s31.3-70 70-70c25 0 46.8 13.8 58.9 34.6
        3.8 6.3 11.9 8.3 18.2 4.5 6.3-3.8 8.3-11.9 4.5-18.2C193 52.6 162.6 34 128 34z" />
            <circle cx="128" cy="128" r="56" fill="#E8F4F1" />
            <path fill="#2F7F6D" d="M66 98c0-24 20-44 44-44h8c0 28-22 50-52 50z" />
            <path fill="#E8F4F1" opacity="0.35" d="M74 96c4-18 20-32 38-32h2c-6 18-21 31-40 32z" />
            <path d="M132 110c22 0 35 8 46 18" fill="none" stroke="#2F7F6D" stroke-width="8"
                stroke-linecap="round" />
            <path d="M132 128c26 0 42 10 56 24" fill="none" stroke="#2F7F6D" stroke-width="8"
                stroke-linecap="round" />
            <path d="M132 146c20 0 32 7 44 16" fill="none" stroke="#2F7F6D" stroke-width="8"
                stroke-linecap="round" />
            <circle cx="182" cy="128" r="9" fill="#E8F4F1" stroke="#1F2423" stroke-width="4" />
            <circle cx="198" cy="152" r="9" fill="#F4A261" stroke="#1F2423" stroke-width="4" />
            <circle cx="176" cy="162" r="7" fill="#E8F4F1" stroke="#1F2423" stroke-width="4" />
            <g transform="translate(190 84)">
                <path fill="#F4A261" d="M0 18l10-4 4-10 4 10 10 4-10 4-4 10-4-10z" />
            </g>
        </svg>
    </g>

    <text x="290" y="150"
        font-family="Inter, Manrope, Sora, system-ui, -apple-system, Segoe UI, Roboto, Arial, sans-serif"
        font-size="88"
        font-weight="700"
        fill="#1F2423"
        letter-spacing="-1"> Smart<tspan font-weight="600" fill="#2F7F6D">Plate</tspan>
    </text>
</svg>